<?xml version="1.0" encoding="utf-8"?>
<!-- Generator: Adobe Illustrator 26.2.1, SVG Export Plug-In . SVG Version: 6.00 Build 0)  -->
<svg version="1.1" id="Capa_1" xmlns="http://www.w3.org/2000/svg" xmlns:xlink="http://www.w3.org/1999/xlink" x="0px" y="0px"
	 viewBox="0 0 500 250" style="enable-background:new 0 0 500 250;" xml:space="preserve">
<style type="text/css">
	.st0{fill:#3F8C70;}
	.st1{fill:#025580;}
	.st2{fill:#FFFFFF;}
	.st3{fill:none;stroke:#FFFFFF;stroke-width:8;stroke-miterlimit:10;}
</style>
<g id="semilla">
	<ellipse class="st0" cx="251.08" cy="126.06" rx="229.92" ry="120.21"/>
	<path class="st1" d="M461.14,175.01c-35.85,42-116.42,71.27-210.07,71.27c-104.37,0-192.49-36.36-220.57-86.17
		c-2.1-3.73,34.17-10.89,102.97-10.19c63.02,0.64,155.91,18.84,217.58,22.04C416.94,175.38,465.46,169.95,461.14,175.01z"/>
</g>
<g id="nk">
	<polygon class="st2" points="382.31,151.3 130.6,140.3 130.6,41.85 382.31,41.85 	"/>
	<path class="st0" d="M61.02,149.89c0-67.52,50.02-41.05,49.93-108.57c-0.01-3.32,0.39-4.48,4.2-4.48c122,0.13,143.99,0.13,265.99,0
		c3.83-0.01,4.2,1.19,4.19,4.49c-0.1,74.45,49.93,57.9,49.93,132.35c-4.02-0.55-7.73-2.74-11.65-2.53
		c-35.45,1.95-70.7-1.1-105.92-4.59c-17.18-1.7-34.29-4.02-51.46-5.79c-21.39-2.21-42.86-3.74-64.2-6.33
		c-22.46-2.72-44.99-4.65-67.5-6.81c-7.02-0.67-14.01,2.25-21.1,2.02C95.82,149.09,78.27,145.39,61.02,149.89z M141.06,90.13
		c0,14.17,0.08,28.35-0.06,42.52c-0.04,3.44,1.04,4.75,4.6,4.7c11.02-0.17,22.05-0.21,33.07,0.01c3.94,0.08,4.82-1.55,4.74-5.06
		c-0.18-8.34-0.1-16.69-0.09-25.03c0-1.15-0.74-2.76,0.93-3.25c1.19-0.35,1.82,0.95,2.59,1.73c9.33,9.57,18.74,19.08,27.99,28.72
		c2.04,2.12,4.18,2.9,7.08,2.89c18.27-0.1,36.53-0.05,54.8-0.05c0.63,0,1.26,0.04,1.89,0.01c0.9-0.04,1.98,0.18,2.46-0.87
		c0.5-1.1-0.38-1.75-1.04-2.38c-2.26-2.15-4.57-4.27-6.85-6.42c-28.76-27.11-57.54-54.2-86.27-81.34c-2.04-1.93-4.06-3.15-7.03-3.11
		c-11.34,0.15-22.68,0.18-34.02,0c-3.73-0.06-4.92,1.21-4.88,4.91C141.16,62.1,141.05,76.11,141.06,90.13z M332.49,137.29
		c9.29,0,18.57,0.03,27.86-0.03c1.47-0.01,3.56,0.87,4.23-0.95c0.71-1.95-1.57-2.39-2.74-3.23c-16.66-11.86-33.31-23.75-50.1-35.45
		c-3.11-2.16-2.72-3.26-0.15-5.5c16.98-14.76,33.85-29.66,50.73-44.53c1.01-0.89,2.84-1.58,2.35-3.17
		c-0.61-1.99-2.67-1.16-4.11-1.17c-15.9-0.05-31.8,0.05-47.69-0.1c-3.32-0.03-5.61,1.11-7.78,3.49
		c-9.03,9.87-18.16,19.65-27.31,29.4c-1.1,1.17-1.85,3.6-3.85,2.79c-1.68-0.68-0.68-2.85-0.69-4.32
		c-0.07-8.97-0.11-17.95,0.02-26.91c0.04-3.26-1.18-4.45-4.44-4.42c-11.17,0.13-22.36,0.13-33.53,0c-3.29-0.04-4.47,1.14-4.39,4.4
		c0.17,6.45,0.19,12.91,0,19.36c-0.09,3.09,0.84,5.29,3.12,7.42c21.36,20.01,42.65,40.11,63.89,60.25c1.98,1.87,3.98,2.73,6.7,2.7
		C313.92,137.2,323.2,137.27,332.49,137.29z"/>
</g>
<g id="line">
	<path class="st3" d="M21.15,168.56c0,0,4.99-23.11,105.78-18.59s136.27,14.61,187.8,18.59s133.74,7.87,169.22,5.92"/>
</g>
</svg>
