<?xml version="1.0" encoding="utf-8"?>
<!-- Generator: Adobe Illustrator 26.2.1, SVG Export Plug-In . SVG Version: 6.00 Build 0)  -->
<svg version="1.1" id="Capa_1" xmlns="http://www.w3.org/2000/svg" xmlns:xlink="http://www.w3.org/1999/xlink" x="0px" y="0px"
	 viewBox="0 0 500 250" style="enable-background:new 0 0 500 250;" xml:space="preserve">
<style type="text/css">
	.st0{fill:#141514;}
	.st1{fill:#7AB055;}
	.st2{fill:#7EB255;}
	.st3{fill:#715134;}
	.st4{fill:#67AA54;}
	.st5{fill:#694C33;}
	.st6{fill:#70AD55;}
	.st7{fill:#6CAC55;}
	.st8{fill:#6C4E34;}
	.st9{fill:#654A32;}
	.st10{fill:#77AF55;}
	.st11{fill:#6AAB54;}
	.st12{fill:#74AE55;}
	.st13{fill:#6F5034;}
	.st14{fill:#644A32;}
	.st15{fill:#6D4F34;}
	.st16{fill:#6A4D33;}
	.st17{fill:#674B33;}
	.st18{fill:#171817;}
	.st19{fill:#191A19;}
	.st20{fill:#FEFEFD;}
	.st21{fill:#FDFDFC;}
</style>
<g id="Capa_4">
	<g>
		<path class="st0" d="M159.96,99.29c4.9,0,9.8,0.04,14.72-0.02c1.26-0.01,1.8,0.25,1.72,1.64c-0.14,2.41,0.81,5.56-0.39,7.03
			c-1.25,1.56-4.53,0.44-6.91,0.48c-6.69,0.12-13.38,0.09-20.08,0.2c-4.11,0.07-6,1.88-5.99,5.51c0.01,3.47,2.16,5.58,5.97,5.74
			c5.37,0.23,10.74-0.05,16.11,0.34c7.39,0.53,11.51,3.52,13.29,9.9c2.11,7.52-0.08,14.74-5.74,18.52c-2.7,1.8-5.91,1.95-8.99,2
			c-9.57,0.13-19.15,0.06-28.72,0.12c-1.16,0.01-1.66-0.22-1.59-1.52c0.14-2.48-0.8-5.65,0.42-7.25c1.16-1.53,4.5-0.43,6.89-0.47
			c6.54-0.09,13.08,0,19.62-0.15c5.48-0.13,8.26-4.34,5.94-8.75c-1.28-2.42-3.55-3.19-6.04-3.3c-3.35-0.14-6.69-0.06-10.04-0.12
			c-2.02-0.05-4.05-0.14-6.06-0.3c-12.06-0.97-14.7-12-12.4-19.47c1.95-6.36,6.39-9.72,13.35-9.97c4.97-0.18,9.97-0.04,14.94-0.04
			C159.96,99.37,159.96,99.32,159.96,99.29z"/>
		<path class="st0" d="M296.88,125.09c0,7.86-0.05,15.74,0.04,23.6c0.01,1.6-0.35,2.12-2.02,2.08c-6.38-0.14-12.76,0.06-19.14-0.21
			c-9.08-0.39-14.86-5.35-16.39-14.27c-1.16-6.73-0.46-13.2,4.72-18.45c2.89-2.94,6.42-4.31,10.44-4.5c3.18-0.15,6.39-0.2,9.57-0.06
			c1.88,0.08,2.6-0.37,2.49-2.39c-0.18-3.33,0-6.69-0.07-10.04c-0.02-1.22,0.33-1.61,1.56-1.57c2.41,0.09,4.83,0.12,7.23,0
			c1.44-0.07,1.63,0.55,1.61,1.78C296.86,109.05,296.88,117.06,296.88,125.09z"/>
		<path class="st0" d="M363.67,150.73c-3.84-0.13-8.49,0.06-13.17-0.21c-7.97-0.44-11.01-7.97-9.32-14.4
			c1.3-4.96,4.35-7.41,9.44-7.92c5.36-0.53,10.74-0.36,16.11-0.3c1.76,0.02,2.06-0.56,1.84-2.14c-0.43-2.97-1.98-4.43-5.5-4.49
			c-5.84-0.11-11.68-0.14-17.51-0.05c-1.74,0.02-2.23-0.42-2.21-2.19c0.07-5.83-0.01-5.83,5.77-5.83
			c5.07,0.01,10.13,0.19,15.19,0.02c10.26-0.33,14.64,5.57,14.78,14.81c0.11,7.01-0.06,14.02-0.01,21.04
			c0.01,1.35-0.39,1.7-1.7,1.67C373.06,150.68,368.78,150.73,363.67,150.73z"/>
		<path class="st0" d="M441.97,135.9c-3.11,0-6.22,0.05-9.35-0.02c-1.32-0.02-1.58,0.37-1.25,1.64c0.73,2.84,2.52,4.5,5.51,4.89
			c4.66,0.58,9.34,0.28,14,0.29c1.51,0,2.33,0.22,2.13,1.99c-0.22,1.92,0.78,4.4-0.36,5.64c-1.17,1.26-3.67,0.36-5.59,0.39
			c-3.5,0.06-7.01,0.07-10.51-0.08c-8.56-0.37-14.48-5.36-16.17-13.77c-1.36-6.76-0.62-13.17,4.12-18.64
			c2.89-3.33,6.72-4.74,10.97-4.88c5.29-0.16,10.59-0.05,15.88-0.15c1.39-0.02,1.64,0.5,1.66,1.77c0.12,6.24,0.15,6.22-6.05,6.24
			c-3.26,0.01-6.54-0.04-9.8,0.09c-3.3,0.13-4.82,1.53-5.67,4.52c-0.47,1.64-0.23,2.14,1.58,2.11c5.92-0.11,11.84,0.02,17.75-0.08
			c1.72-0.04,2.25,0.39,2.22,2.18c-0.07,5.91,0.01,5.91-5.93,5.91C445.4,135.9,443.68,135.9,441.97,135.9z"/>
		<path class="st0" d="M194.37,127.86c6.39,0,12.78,0.11,19.14-0.06c2.21-0.06,2.68,0.63,2.62,2.7c-0.14,5.39-0.05,5.39-5.46,5.39
			c-4.83,0-9.66,0.09-14.48-0.05c-1.95-0.06-1.99,0.73-1.56,2.19c0.74,2.48,2.61,4,5.46,4.35c4.74,0.58,9.49,0.27,14.24,0.28
			c1.45,0,1.94,0.37,1.79,1.83c-0.21,1.99,0.81,4.55-0.39,5.85c-1.11,1.21-3.69,0.32-5.6,0.35c-3.26,0.05-6.54,0.06-9.82-0.06
			c-10-0.34-16.66-6.84-17.35-16.86c-0.34-5.03,0.46-9.83,3.35-14.03c2.88-4.19,7.08-6.27,12.11-6.43
			c5.37-0.16,10.75-0.06,16.12-0.15c1.22-0.02,1.65,0.34,1.57,1.58c-0.11,1.63-0.11,3.28,0,4.9c0.08,1.3-0.47,1.54-1.63,1.53
			c-4.43-0.04-8.88-0.06-13.31,0.04C196.43,121.34,194.87,122.89,194.37,127.86z"/>
		<path class="st0" d="M243.07,135.9c-3.04,0-6.08,0.07-9.11-0.04c-1.47-0.05-1.72,0.53-1.44,1.79c0.56,2.56,2.57,4.36,5.42,4.73
			c4.74,0.61,9.49,0.3,14.24,0.29c1.56,0,2.05,0.46,1.88,1.95c-0.21,1.98,0.84,4.64-0.46,5.78c-1.12,0.98-3.7,0.3-5.64,0.32
			c-2.96,0.01-5.92,0.05-8.88-0.04c-11.04-0.3-17.76-6.93-18.18-17.99c-0.19-4.94,0.87-9.61,3.95-13.62
			c2.96-3.84,7.02-5.6,11.76-5.74c5.29-0.15,10.59-0.06,15.89-0.15c1.23-0.02,1.53,0.35,1.57,1.57c0.18,6.43,0.21,6.42-6.07,6.43
			c-3.28,0.01-6.55-0.04-9.82,0.09c-3.23,0.13-4.97,1.67-5.64,4.59c-0.32,1.38-0.2,2.07,1.59,2.04c5.99-0.12,11.99,0.01,17.99-0.08
			c1.53-0.02,2.09,0.39,1.92,1.93c-0.22,1.99,0.85,4.64-0.44,5.8c-1.1,0.98-3.7,0.3-5.63,0.33
			C246.35,135.92,244.71,135.9,243.07,135.9z"/>
		<path class="st0" d="M326.83,113.21c2.73,0,5.45,0.06,8.18-0.02c1.26-0.05,1.72,0.23,1.74,1.63c0.11,6.38,0.15,6.32-6.12,6.39
			c-3.57,0.04-7.16-0.37-10.71,0.47c-3.49,0.83-5.51,3.04-6.12,6.53c-0.75,4.27-0.77,8.42,2.57,11.78c1.47,1.49,3.31,2.18,5.42,2.41
			c4.35,0.49,8.72,0.3,13.07,0.29c1.31,0,2.01,0.14,1.87,1.72c-0.18,2,0.64,4.63-0.35,5.87c-1.05,1.31-3.78,0.4-5.77,0.41
			c-3.81,0.02-7.64,0.08-11.44-0.19c-8.78-0.62-14.05-5.18-15.74-13.86c-1.23-6.29-0.68-12.41,3.36-17.8
			c3.03-4.04,7.38-5.25,12.1-5.53c2.64-0.15,5.3-0.02,7.94-0.02C326.83,113.27,326.83,113.25,326.83,113.21z"/>
		<path class="st0" d="M397.22,136.07c0,4.36-0.04,8.72,0.02,13.08c0.01,1.13-0.2,1.67-1.51,1.61c-2.48-0.12-4.98-0.08-7.46-0.01
			c-1.16,0.04-1.43-0.4-1.43-1.49c0.04-11.52,0.02-23.05,0.01-34.57c0-0.85,0.02-1.53,1.19-1.5c6.83,0.21,13.7-0.53,20.51,0.5
			c5.01,0.75,7.52,3.52,8.07,8.52c0.28,2.55,1.11,5.69-0.16,7.5c-1.03,1.46-4.39,0.16-6.67,0.47c-2.47,0.33-3.03-0.61-3-2.98
			c0.08-4.75-4.57-7.72-8.94-5.99c-0.96,0.37-0.6,1.17-0.61,1.79C397.21,127.35,397.22,131.71,397.22,136.07z"/>
		<path class="st1" d="M52.06,135.77c-0.16,2.34-0.32,4.68-0.48,7.01c-0.43,5.1-0.11,10.2-0.23,15.32c-0.04,1.37,0.2,2.85-1.17,3.84
			c-3.64-2.56-6.87-5.55-9.38-9.24c-0.39-0.81-0.3-1.67-0.29-2.52c0.09-15.15,0-30.3,0.05-45.45c0-1.36-0.33-2.83,0.75-4
			c3.81,0.62,7.5,1.59,10.81,3.7c0.04,10.25,0.48,20.5-0.29,30.74C51.8,135.38,51.92,135.57,52.06,135.77z"/>
		<path class="st2" d="M41.3,100.71c0,16.03-0.01,32.06,0.01,48.09c0,1.33-0.12,2.63-0.51,3.9c-5.98-7.31-9.21-15.78-10.19-25.07
			c-0.9-8.52,0.39-16.72,4.53-24.37C37.1,99.64,37.2,99.54,41.3,100.71z"/>
		<path class="st3" d="M100.29,133.9c2.41-9.87,2.68-19.82,0.7-29.79c-0.26-1.28,0.08-1.67,1.18-1.84c0.23-0.04,0.46-0.12,0.68-0.14
			c7.79-1.09,6.22-1.67,9.06,5.01c3.7,8.73,3.94,17.76,1.44,26.87c-2.81,0.98-5.69,0.23-8.53,0.27
			C103.36,134.31,101.73,134.75,100.29,133.9z"/>
		<path class="st4" d="M87.04,89.94c10.45,15.92,10.52,36.59,4.11,50.3c-0.42-6.76-2.67-12.51-5.44-18.08
			c-0.19-0.27-0.23-0.56-0.23-0.88c-0.13-9.56-0.07-19.12-0.01-28.68C85.48,91.5,85.39,90.16,87.04,89.94z"/>
		<path class="st5" d="M59.49,154.56c-1.21-1.97-1.83-4.11-1.88-6.42c-0.43-3.58,0.27-4.27,3.81-4.07
			c6.11,0.34,12.21-0.22,18.32-0.14c1.39,0.01,2.78,0.08,4.17,0.34c1.73,0.33,2.45,1.18,1.85,2.92c0.02,2.45-0.61,4.74-1.73,6.89
			c-5.22,1.03-10.49,0.53-15.75,0.53C65.34,154.62,62.41,154.2,59.49,154.56z"/>
		<path class="st6" d="M66.06,78.7c0.84-0.67,1.65-1.39,2.53-2c3.28-2.29,3.28-2.28,6.42,0.44c0.46,2.07,0.19,4.18,0.19,6.26
			c0.04,6.67,0.04,13.33,0,20c-0.01,1.37,0.16,2.84-1.19,3.81c-2.49-2.07-4.98-4.14-7.48-6.2c-0.53-0.71-0.73-1.52-0.73-2.4
			c-0.05-6.18,0-12.37-0.02-18.54C65.8,79.6,65.92,79.14,66.06,78.7z"/>
		<path class="st7" d="M74.02,107.21c0.36-1.19,0.48-2.4,0.48-3.65c-0.04-7.76-0.01-15.5-0.02-23.26c0-1.09-0.06-2.18,0.55-3.16
			c2.4,1.64,4.81,3.25,6.4,5.77c0.23,3.39,0.04,6.79,0.04,10.18c0.01,4.02,0.21,8.05-0.08,12.07c-0.14,1.95,0.4,3.87,0.18,5.8
			c-0.13,1.13,0.18,2.59-1.57,2.87C78,111.63,76.01,109.42,74.02,107.21z"/>
		<path class="st8" d="M85.76,147.19c0.11-1.36-0.33-2.01-1.88-2.2c-4.47-0.51-8.9-0.39-13.37-0.06c-2.87,0.21-5.8,0.25-8.63-0.12
			c-3.39-0.43-4.12-0.08-4.26,3.32c-0.89-3.56-0.44-7.04,0.61-10.49c1.22-1.02,2.64-0.75,4-0.56c2.78,0.39,5.55,0.09,8.32,0.12
			c4.1,0.04,8.17,0.01,12.25-0.22c0.94-0.06,1.87,0.14,2.36,1.12C85.93,141.08,86.56,144.09,85.76,147.19z"/>
		<path class="st9" d="M59.49,154.56c0.46-1.1,1.43-1.11,2.35-1.01c5.66,0.62,11.34,0.33,17,0.5c1.73,0.06,3.47-1.13,5.18,0.02
			c-2.28,5.09-5.99,8.88-10.67,11.83c-1.21,0.76-2.09,0.85-3.33,0.05C65.53,163.04,61.65,159.6,59.49,154.56z"/>
		<path class="st3" d="M60.47,132.03c2.29-5.41,6.19-9.57,10.28-13.61c0.78-0.77,1.31-0.48,1.93,0.15c4,4.01,7.83,8.17,10.13,13.46
			c-0.51,0.85-1.33,1.03-2.22,0.96c-5.83-0.41-11.66-0.18-17.49-0.27C62.17,132.71,61.21,132.79,60.47,132.03z"/>
		<path class="st10" d="M52.06,135.77c-1.08-2.57-0.56-5.32-0.6-7.94c-0.06-4.68,0.08-9.36-0.06-14.05
			c-0.07-2.68,0.43-5.36-0.11-8.05c-0.09-0.48,0.3-1.03,0.81-1.32c3.38,1.68,6.62,3.6,9.49,6.11c2.45,2.14,2.42,2.13,0.49,4.66
			C57.36,121.36,53.64,128.05,52.06,135.77z"/>
		<path class="st11" d="M79.99,113.84c0.73-0.48,0.95-1.35,0.95-2.02c0-3.94,0.04-7.9-0.29-11.83c-0.16-1.95,0.8-3.78,0.29-5.7
			c-0.85-3.23,0.69-6.53-0.32-9.77c-0.2-0.63-0.2-1.45,0.82-1.6c1.91,2.32,4.08,4.41,5.62,7.03c-1.16,0.61-0.87,1.72-0.87,2.69
			c-0.01,8.62-0.02,17.25,0.01,25.87c0,1.25-0.12,2.47-0.47,3.66C83.8,119.39,81.9,116.62,79.99,113.84z"/>
		<path class="st12" d="M66.06,78.7c0.57,0.91,0.47,1.94,0.47,2.95c0,6.46,0,12.91,0,19.36c-3.67-2.48-7.57-4.52-11.76-5.98
			c-0.95-0.33-1.42-0.67-0.77-1.78C57.21,87.71,60.84,82.55,66.06,78.7z"/>
		<path class="st13" d="M60.47,132.03c5.79,0,11.58,0.05,17.37-0.04c1.66-0.02,3.31,0.98,4.97,0.04c1.13,1.88,1.93,3.9,2.34,6.06
			c-1.87-0.82-3.83-0.56-5.72-0.28c-2.25,0.34-4.46,0.53-6.67-0.07c-1.59-0.43-3.05,0.34-4.6,0.41c-3.36,0.16-6.62-0.75-9.97-0.51
			C58.65,135.64,59.31,133.73,60.47,132.03z"/>
		<path class="st14" d="M100.17,157.15c-6.74,6.94-14.88,11.07-24.53,12.24c5.55-3.71,10.07-8.44,14.25-13.53
			c2.42-0.21,4.83-0.83,7.28-0.56C98.38,155.44,99.85,155.41,100.17,157.15z"/>
		<path class="st15" d="M100.29,133.9c4.36-0.56,8.7-0.19,13.06,0.12c-0.77,3.16-1.51,6.34-3.37,9.1
			c-3.36,0.55-6.74-0.01-10.11,0.26c-0.92,0.07-1.85-0.14-2.41-1.04C98.39,139.51,99.34,136.71,100.29,133.9z"/>
		<path class="st10" d="M50.19,161.92c0.95-4.04,0.29-8.13,0.43-12.19c0.08-2.36,0.04-4.72,0.96-6.95c0.01,0.42,0.02,0.85,0.04,1.28
			c0.41,0.77-0.04,1.66,0.35,2.45c1.06,9.64,6.93,16.3,13.88,22.38C59.95,168,54.84,165.49,50.19,161.92z"/>
		<path class="st16" d="M97.44,142.31c3.21,0.83,6.48,0.21,9.72,0.32c1.01,0.04,1.92,0,2.81,0.48c-0.96,2.66-2.22,5.15-4.11,7.29
			c-3.49,0.43-6.93-0.25-10.38-0.44c-0.55-0.04-1.06-0.2-1.44-0.64C95.19,146.98,96.32,144.65,97.44,142.31z"/>
		<path class="st17" d="M94.05,149.31c3.46,0.16,6.94,0.33,10.4,0.49c0.56,0.02,1.09,0.06,1.42,0.61c-1.84,2.29-3.19,5.01-5.7,6.75
			c-1.94-1.75-4.24-1.42-6.49-1.02c-1.32,0.23-2.56,0.39-3.79-0.27C91.27,153.67,92.66,151.5,94.05,149.31z"/>
		<path class="st18" d="M472.39,107.94c0.7-2.16,1.37-3.77,1.71-5.42c0.37-1.8,1.59-1.59,2.83-1.52c1.47,0.09,0.85,1.25,0.88,1.95
			c0.08,2.18,0.05,4.36,0.02,6.54c-0.01,0.7,0.32,1.61-0.99,1.64c-1.4,0.04-1.17-0.91-1.17-1.74c-0.01-1.36,0-2.71-0.42-4.12
			c-0.53,1.5-1.04,3.01-1.58,4.5c-0.23,0.64-0.34,1.33-1.31,1.37c-0.98,0.04-1.15-0.64-1.37-1.28c-0.55-1.52-1.06-3.05-2.02-4.57
			c0,1.53-0.01,3.08,0,4.61c0.01,0.67-0.01,1.23-0.94,1.24c-0.88,0.01-1.26-0.28-1.25-1.21c0.04-2.41,0-4.83,0.02-7.24
			c0.01-0.71-0.29-1.72,0.96-1.68c1.01,0.02,2.21-0.47,2.66,1.12C470.92,103.9,471.6,105.62,472.39,107.94z"/>
		<path class="st19" d="M465.42,101.88c0.02,1.05-0.73,1.09-1.43,0.98c-1.46-0.21-1.63,0.56-1.58,1.76
			c0.08,1.71-0.01,3.42,0.04,5.12c0.02,0.92-0.14,1.44-1.25,1.42c-1.04-0.02-1.08-0.58-1.06-1.35c0.02-1.79-0.06-3.57,0.02-5.36
			c0.06-1.16-0.22-1.74-1.51-1.59c-0.66,0.08-1.49,0.18-1.51-0.9c-0.04-1.31,0.96-0.96,1.65-0.97c1.78-0.04,3.57-0.01,5.36-0.01
			C464.79,100.97,465.44,100.95,465.42,101.88z"/>
		<path class="st1" d="M51.97,146.5c-0.67-0.74-0.3-1.61-0.35-2.45C52.06,144.83,52,145.67,51.97,146.5z"/>
		<path class="st20" d="M286.53,132c0,2.96-0.06,5.91,0.02,8.87c0.04,1.36-0.26,2-1.78,1.88c-1.7-0.14-3.42,0-5.12-0.04
			c-5.93-0.11-9.23-2.98-10.13-8.81c-0.96-6.19,1.71-11.17,6.79-12.39c3.05-0.74,6.19-0.22,9.29-0.32c1.11-0.04,0.94,0.81,0.94,1.47
			C286.54,125.79,286.53,128.89,286.53,132z"/>
		<path class="st21" d="M361.15,135.9c2.02,0,4.05,0.04,6.07-0.01c0.95-0.02,1.46,0.22,1.42,1.29c-0.06,1.47-0.04,2.96-0.01,4.45
			c0.01,0.76-0.26,1.13-1.08,1.12c-4.28-0.08-8.56-0.05-12.85-0.21c-1.92-0.07-3.56-0.78-3.51-3.17c0.05-2.19,1.25-3.3,3.87-3.4
			c2.02-0.08,4.05-0.01,6.07-0.01C361.15,135.91,361.15,135.91,361.15,135.9z"/>
	</g>
</g>
<g id="Capa_5">
</g>
</svg>
