<?xml version="1.0" encoding="utf-8"?>
<!-- Generator: Adobe Illustrator 26.2.1, SVG Export Plug-In . SVG Version: 6.00 Build 0)  -->
<svg version="1.1" id="Capa_3" xmlns="http://www.w3.org/2000/svg" xmlns:xlink="http://www.w3.org/1999/xlink" x="0px" y="0px"
	 viewBox="0 0 500 250" style="enable-background:new 0 0 500 250;" xml:space="preserve">
<style type="text/css">
	.st0{fill:#010066;}
	.st1{fill:#019934;}
</style>
<g id="layer1" transform="translate(-1349.0454,-430.52764)">
	<g id="g48700">
		<path id="path48290" class="st0" d="M1753.84,541.52h-13.93v23.02c0,6.56,3.47,7.78,7.94,7.78c1.55,0,3.21-0.22,4.91-0.45
			l1.08,10.32c-3.65,0.65-8.52,1.2-11.69,1.2c-9.56,0-18.08-3.35-18.08-15.11v-26.76h-8.05v-10.17h8.05v-11.21l15.84-4.49v15.7
			h13.93V541.52"/>
		<path id="path48292" class="st0" d="M1711.17,582.33h-15.84V549.6c0-4.82-2.02-7.48-7.47-7.48c-4.11,0-6.75,1.98-9.71,4.34v35.87
			h-15.88v-50.98h15.41v4.49c5.16-3.47,11.08-5.68,17.5-5.68c10.11,0,15.99,6.27,15.99,15.84L1711.17,582.33"/>
		<path id="path48294" class="st1" d="M1629.61,487.97c-8.05,13.59-4.55,25.89-12.42,33.73c-6.28,6.31-12.13,6.09-18.98,6.09
			c-2.42,0-7.04,0.21-8.99,1.62c-1.12-3.59-1.62-7.54-1.62-11.3c0-6.46,1.44-12.21,6.1-16.86
			C1602.61,492.35,1618.74,489.52,1629.61,487.97"/>
		<path id="path48296" class="st0" d="M1543.67,582.33h-15.84V549.6c0-4.82-2.02-7.48-7.47-7.48c-4.08,0-6.75,1.98-9.71,4.34v35.87
			h-15.84v-50.98h15.41v4.49c5.16-3.47,11.08-5.68,17.47-5.68c10.11,0,15.99,6.27,15.99,15.84v36.33"/>
		<path id="path48298" class="st0" d="M1492.27,531.35l-25.41,61.75c-3.9,9.48-11.73,16.44-22.41,16.44c-5.34,0-8.19-0.7-11.66-1.49
			l2.24-10.17c2.82,0.63,4.94,0.9,6.86,0.9c6.39,0,9.78-5.42,12.89-12.86l1.48-3.59l-19.74-50.98h17.04l9.28,25.27
			c1.12,3.05,1.77,6.18,2.27,8.37c0.58-2.21,1.7-5.88,2.82-8.82l9.56-24.82L1492.27,531.35"/>
		<path id="path48300" class="st0" d="M1436.3,566.04c0,11.1-10.25,17.19-22.41,17.19c-7.94,0-14.33-1.32-21.08-4.03l4.33-10.32
			c4.01,1.62,9.78,3.44,14.51,3.44c3.68,0,8.81-0.45,8.81-4.93c0-2.1-1.3-3.18-3.75-3.89c-3.03-0.9-7.69-1.7-10.76-2.54
			c-6.46-1.78-11.8-5.18-11.8-14.65c0-10.51,8.95-17.04,21.22-17.04c8.12,0,13.25,1.06,17.79,2.39l-4.04,10.32
			c-1.99-0.92-7.62-2.24-11.66-2.24c-4.37,0-7.33,1.66-7.33,4.34c0,1.32,0.83,2.99,3.14,3.74c2.49,0.79,6.42,1.52,9.71,2.24
			C1429.76,551.53,1436.3,555.4,1436.3,566.04"/>
		<path id="path48302" class="st0" d="M1786.68,568.73v-9.42c-7.33-0.12-14.22,0.62-14.22,7.62c0,4.34,3.68,5.69,6.46,5.69
			C1782.2,572.62,1784.73,570.97,1786.68,568.73z M1802.06,582.33h-14.94v-4.03c-3.86,3.43-8.91,5.09-14.47,5.09
			c-9.49,0-15.99-4.59-15.99-14.21c0-16.9,16.85-19.53,30.03-19.58v-1.36c0-4.19-1.59-7.18-9.1-7.18c-5.09,0-10.86,2.52-14.65,4.79
			l-3.9-9.42c6.75-3.66,15.09-6.27,22.99-6.27c12.16,0,20.03,5.81,20.03,15.99L1802.06,582.33"/>
		<path id="path48310" class="st0" d="M1638.85,550.04c0.29-5.62-2.53-9.12-8.05-9.12c-5.34,0-8.52,3.92-9.42,9.12H1638.85z
			 M1655.16,554.98c0,1.68-0.04,3.43-0.14,5.23h-33.78c0.14,7.42,3.83,11.81,14.65,11.81c4.76,0,10.54-2.17,12.99-3.89l4.19,9.42
			c-6.97,3.79-14.47,5.84-22.88,5.84c-15.84,0-25.7-10.21-25.7-26.47c0-16.53,12.92-26.75,26.89-26.75
			C1648.81,530.17,1655.16,540.33,1655.16,554.98"/>
		<path id="path48312" class="st0" d="M1588.1,590.71c0-4.16-3.32-5.68-6.71-5.68h-13.9c-2.13,1.21-5.38,3.87-5.38,7.33
			c0,4.47,6.03,7.47,13.14,7.47C1582.65,599.83,1588.1,596.44,1588.1,590.71z M1583.91,546.9c0-4.27-2.35-7.77-7.62-7.77
			c-4.8,0-7.76,4.07-7.76,7.77c0,4.28,2.67,7.77,7.47,7.77C1581.28,554.68,1583.91,551.16,1583.91,546.9z M1603.98,588.62
			c0,14.87-14.83,21.75-29.45,21.83c-12.89,0.06-25.26-3.64-25.26-16c0-5.78,5.09-9.64,8.19-11.66c-1.7-0.98-3.28-1.76-4.62-3.28
			c-1.41-1.62-2.56-3.98-2.56-7.93c0-4.97,4.4-9.59,9.75-12.55c-2.96-1.56-6.89-4.05-6.89-12.41c0-10.86,10.32-16.59,23.78-16.59
			c11.44,0,22.41,2.74,22.41,16.15c0,12.81-12.02,17.48-24.22,17.48c-2.27,0-4.29-0.35-6.28-0.74c-1.3,0.69-3.9,2.41-3.9,4.33
			c0,3.92,5.34,4.49,7.8,4.49h12.56C1596.91,571.73,1603.98,577.37,1603.98,588.62"/>
	</g>
</g>
</svg>
