<?xml version="1.0" encoding="utf-8"?>
<!-- Generator: Adobe Illustrator 26.1.0, SVG Export Plug-In . SVG Version: 6.00 Build 0)  -->
<svg version="1.1" id="Capa_1" xmlns="http://www.w3.org/2000/svg" xmlns:xlink="http://www.w3.org/1999/xlink" x="0px" y="0px"
	 viewBox="0 0 836 234" style="enable-background:new 0 0 836 234;" xml:space="preserve">
<style type="text/css">
	.st0{fill:#536C43;}
	.st1{fill:#CEAC39;}
</style>
<g id="cosembrar_6_">
	<path class="st0" d="M110.87,152.67c0-19.65,12.59-29.1,29.85-29.1s29.85,9.45,29.85,29.1v9.32H147.4v-11.33c0-3.4,0-9.2-6.68-9.2
		c-6.68,0-6.68,5.8-6.68,9.2v49.75c0,2.65,0,9.2,6.68,9.2c6.68,0,6.68-6.55,6.68-9.2v-14.74h23.18v12.72
		c0,17.89-11.46,29.09-29.85,29.09c-18.39,0-29.85-11.21-29.85-29.09V152.67z"/>
	<path class="st0" d="M187.54,152.67c0-19.65,12.59-29.1,29.85-29.1s29.85,9.45,29.85,29.1v45.72c0,17.89-11.46,29.09-29.85,29.09
		c-18.39,0-29.85-11.21-29.85-29.09V152.67z M210.72,200.41c0,2.65,0,9.2,6.68,9.2s6.68-6.55,6.68-9.2v-49.75c0-3.4,0-9.2-6.68-9.2
		s-6.68,5.8-6.68,9.2V200.41z"/>
	<path class="st0" d="M283.69,191.72v7.43c0,5.42,1.26,10.46,7.81,10.46c5.29,0,8.06-3.4,8.06-7.81c0-8.82-9.19-14.74-18.39-21.41
		c-9.32-7.68-18.64-13.23-18.64-28.59c0-19.78,11.09-28.21,29.6-28.21c20.15,0,28.97,9.82,28.97,25.32v9.07h-21.66v-5.42
		c0-5.04-0.76-11.08-7.31-11.08c-4.91,0-7.94,2.9-7.94,7.56c0,6.04,9.83,12.97,19.27,20.03c8.57,7.56,19.27,12.47,19.27,32.75
		c0,9.7-7.31,25.7-31.49,25.7c-22.92,0-29.98-14.49-29.98-24.94v-10.83H283.69z"/>
	<path class="st0" d="M336.95,125.21h51.52v19.4h-28.34v20.02h24.81v19.4h-24.81v22.42h29.47v19.4h-52.65V125.21z"/>
	<path class="st0" d="M406.79,125.21h36.53l6.55,49.88h0.25l6.55-49.88h36.53v100.64h-22.42v-78.22h-0.25l-12.97,78.22h-15.11
		l-12.98-78.22h-0.25v78.22h-22.42V125.21z"/>
	<path class="st0" d="M510.39,125.21h32.12c16.88,0,25.06,6.42,25.06,23.68c0,10.58-1.51,19.9-12.72,23.68v0.25
		c11.33,2.01,15.24,10.45,15.24,23.18c0,16.88-6.17,29.85-26.83,29.85h-32.87V125.21z M533.56,165.01h4.28
		c7.31,0,8.06-5.42,8.06-11.72c0-7.05-1.51-10.96-7.18-10.96h-5.16V165.01z M533.56,208.72h4.79c7.68,0,8.56-3.78,8.56-13.73
		c0-6.93-0.88-13.6-8.06-13.6h-5.29V208.72z"/>
	<path class="st0" d="M587.06,125.21h30.61c20.66,0,29.35,6.17,29.35,24.31c0,11.84-1.64,19.53-13.98,23.3v0.25
		c8.19,1.64,13.48,7.56,13.48,16v17.76c0,6.68-0.25,15.75,2.39,19.02h-22.92c-2.65-3.27-2.65-12.34-2.65-19.02v-16.12
		c0-5.79-2.27-8.31-8.82-8.31h-4.28v43.45h-23.18V125.21z M610.23,165.27h5.67c7.94,0,7.94-5.29,7.94-11.84
		c0-7.05,0-11.08-9.07-11.08h-4.53V165.27z"/>
	<path class="st0" d="M678.09,125.21h30.73l18.89,100.64h-24.31l-2.14-17.89h-16.25l-2.39,17.89h-23.18L678.09,125.21z
		 M687.41,190.08H699l-5.42-49.25h-0.25L687.41,190.08z"/>
	<path class="st0" d="M740.4,125.21h30.61c20.66,0,29.35,6.17,29.35,24.31c0,11.84-1.64,19.53-13.98,23.3v0.25
		c8.19,1.64,13.48,7.56,13.48,16v17.76c0,6.68-0.25,15.75,2.39,19.02h-22.92c-2.65-3.27-2.65-12.34-2.65-19.02v-16.12
		c0-5.79-2.27-8.31-8.82-8.31h-4.28v43.45H740.4V125.21z M763.58,165.27h5.67c7.94,0,7.94-5.29,7.94-11.84
		c0-7.05,0-11.08-9.07-11.08h-4.53V165.27z"/>
</g>
<path id="i1_18_" class="st0" d="M42.07,171.63c-5.92-5.58-20.51-10.28-20.51-10.28s6.94,10.53,16.27,44.42
	c6.87,24.94,32.13,25.07,43.52,19.62C60.42,213.38,62.86,191.26,42.07,171.63z"/>
<path class="st1" d="M34.07,158.32c5.73-25.8,7.55-34.04,22.61-34.04s27.35,28.93,27.35,68.61c0,9.92,0.42,13.78-1.47,23.96
	c-11.01-2.96-18.49-25.71-18.49-25.71S52.36,164.14,34.07,158.32z"/>
<path id="_x34__5_" class="st0" d="M448.2,40.96l373.42,59.12c9,0,10.22-13.01,1.39-14.7L448.2,9.92c-19.43-3.7-39.38-3.7-58.81,0
	L14.57,85.39c-8.84,1.68-7.61,14.7,1.39,14.7l373.42-59.12C408.81,37.26,428.77,37.26,448.2,40.96z"/>
</svg>
