<?xml version="1.0" encoding="utf-8"?>
<!-- Generator: Adobe Illustrator 26.2.1, SVG Export Plug-In . SVG Version: 6.00 Build 0)  -->
<svg version="1.1" id="Capa_1" xmlns="http://www.w3.org/2000/svg" xmlns:xlink="http://www.w3.org/1999/xlink" x="0px" y="0px"
	 viewBox="0 0 836 234" style="enable-background:new 0 0 836 234;" xml:space="preserve">
<style type="text/css">
	.st0{fill:#367C2B;}
	.st1{fill:#CEAC39;}
</style>
<g id="cosembrar_6_">
	<path class="st0" d="M110.9,152.7c0-19.6,12.6-29.1,29.8-29.1s29.9,9.5,29.9,29.1v9.3h-23.2v-11.3c0-3.4,0-9.2-6.7-9.2
		s-6.7,5.8-6.7,9.2v49.8c0,2.6,0,9.2,6.7,9.2s6.7-6.6,6.7-9.2v-14.7h23.2v12.7c0,17.9-11.5,29.1-29.9,29.1s-29.8-11.2-29.8-29.1
		L110.9,152.7L110.9,152.7z"/>
	<path class="st0" d="M187.5,152.7c0-19.6,12.6-29.1,29.9-29.1s29.9,9.5,29.9,29.1v45.7c0,17.9-11.5,29.1-29.9,29.1
		s-29.9-11.2-29.9-29.1V152.7z M210.7,200.4c0,2.6,0,9.2,6.7,9.2s6.7-6.6,6.7-9.2v-49.8c0-3.4,0-9.2-6.7-9.2s-6.7,5.8-6.7,9.2V200.4
		z"/>
	<path class="st0" d="M283.7,191.7v7.4c0,5.4,1.3,10.5,7.8,10.5c5.3,0,8.1-3.4,8.1-7.8c0-8.8-9.2-14.7-18.4-21.4
		c-9.3-7.7-18.6-13.2-18.6-28.6c0-19.8,11.1-28.2,29.6-28.2c20.1,0,29,9.8,29,25.3v9.1h-21.7v-5.4c0-5-0.8-11.1-7.3-11.1
		c-4.9,0-7.9,2.9-7.9,7.6c0,6,9.8,13,19.3,20c8.6,7.6,19.3,12.5,19.3,32.8c0,9.7-7.3,25.7-31.5,25.7c-22.9,0-30-14.5-30-24.9v-10.8
		L283.7,191.7L283.7,191.7z"/>
	<path class="st0" d="M337,125.2h51.5v19.4h-28.3v20h24.8V184h-24.8v22.4h29.5v19.4H337V125.2z"/>
	<path class="st0" d="M406.8,125.2h36.5l6.5,49.9h0.2l6.5-49.9h36.5v100.6h-22.4v-78.2h-0.2l-13,78.2h-15.1l-13-78.2h-0.2v78.2
		h-22.4L406.8,125.2L406.8,125.2z"/>
	<path class="st0" d="M510.4,125.2h32.1c16.9,0,25.1,6.4,25.1,23.7c0,10.6-1.5,19.9-12.7,23.7v0.2c11.3,2,15.2,10.4,15.2,23.2
		c0,16.9-6.2,29.9-26.8,29.9h-32.9V125.2z M533.6,165h4.3c7.3,0,8.1-5.4,8.1-11.7c0-7.1-1.5-11-7.2-11h-5.2L533.6,165L533.6,165z
		 M533.6,208.7h4.8c7.7,0,8.6-3.8,8.6-13.7c0-6.9-0.9-13.6-8.1-13.6h-5.3V208.7z"/>
	<path class="st0" d="M587.1,125.2h30.6c20.7,0,29.3,6.2,29.3,24.3c0,11.8-1.6,19.5-14,23.3v0.2c8.2,1.6,13.5,7.6,13.5,16v17.8
		c0,6.7-0.2,15.8,2.4,19H626c-2.7-3.3-2.7-12.3-2.7-19v-16.1c0-5.8-2.3-8.3-8.8-8.3h-4.3v43.4h-23.2L587.1,125.2L587.1,125.2z
		 M610.2,165.3h5.7c7.9,0,7.9-5.3,7.9-11.8c0-7.1,0-11.1-9.1-11.1h-4.5L610.2,165.3L610.2,165.3z"/>
	<path class="st0" d="M678.1,125.2h30.7l18.9,100.6h-24.3l-2.1-17.9H685l-2.4,17.9h-23.2L678.1,125.2z M687.4,190.1H699l-5.4-49.2
		h-0.2L687.4,190.1z"/>
	<path class="st0" d="M740.4,125.2H771c20.7,0,29.3,6.2,29.3,24.3c0,11.8-1.6,19.5-14,23.3v0.2c8.2,1.6,13.5,7.6,13.5,16v17.8
		c0,6.7-0.2,15.8,2.4,19h-22.9c-2.7-3.3-2.7-12.3-2.7-19v-16.1c0-5.8-2.3-8.3-8.8-8.3h-4.3v43.4h-23.2V125.2z M763.6,165.3h5.7
		c7.9,0,7.9-5.3,7.9-11.8c0-7.1,0-11.1-9.1-11.1h-4.5L763.6,165.3L763.6,165.3z"/>
</g>
<path id="i1_18_" class="st0" d="M42.1,171.6c-5.9-5.6-20.5-10.3-20.5-10.3s6.9,10.5,16.3,44.4c6.9,24.9,32.1,25.1,43.5,19.6
	C60.4,213.4,62.9,191.3,42.1,171.6z"/>
<path class="st1" d="M34.1,158.3c5.7-25.8,7.5-34,22.6-34S84,153.2,84,192.9c0,9.9,0.4,13.8-1.5,24c-11-3-18.5-25.7-18.5-25.7
	S52.4,164.1,34.1,158.3z"/>
<path id="_x34__5_" class="st0" d="M448.2,41l373.4,59.1c9,0,10.2-13,1.4-14.7L448.2,9.9c-19.4-3.7-39.4-3.7-58.8,0L14.6,85.4
	C5.7,87.1,7,100.1,16,100.1L389.4,41C408.8,37.3,428.8,37.3,448.2,41z"/>
</svg>
